<?xml version="1.0" encoding="UTF-8"?><svg id="Layer_1" xmlns="http://www.w3.org/2000/svg" viewBox="0 0 521.2 339.72"><defs>
<style>.cls-1{fill:none;stroke:#231f20;stroke-miterlimit:10;stroke-width:5.31px;}</style>
</defs><path class="cls-1" d="m302.31,3.04l131.65,186.34c.5.71,1.7.38,1.7-.46l-.47-185.41c0-.47.41-.85.92-.85h81.51c.51,0,.92.38.92.85v332.71c0,.47-.41.85-.92.85h-81.94c-.31,0-.6-.14-.77-.38l-131-180.08c-.51-.7-1.69-.37-1.69.47l-.18,179.14c0,.47-.41.85-.92.85h-79.51c-.51,0-.92-.38-.92-.85l-.38-178.45c0-.89-1.3-1.18-1.74-.39,0,0-33.22,73.19-33.57,73.19h-65.79c-.35,0-33.6-73.63-33.59-72.74l.85,178.38c0,.47-.41.85-.92.85H3.58c-.51,0-.92-.38-.92-.85V3.5c0-.47.41-.85.92-.85h82.34c.34,0,.65.17.81.44l64.69,131.65c.14.29.55.3.7.01C157.56,124.3,220.42,3.09,220.42,3.09c.16-.27.47-.44.81-.44h80.31c.31,0,.6.15.77.39Z"/>
</svg>